name rise30.8019peak61.5557fall86.2505.mot
datacolumns 19
datarows 33
range 16.31493700000000 16.36827000000000
endheader
time	ground_force1_vx	ground_force1_vy	ground_force1_vz	ground_force1_px	ground_force1_py	ground_force1_pz	ground_force2_vx	ground_force2_vy	ground_force2_vz	ground_force2_px	ground_force2_py	ground_force2_pz	ground_torque1_x	ground_torque1_y	ground_torque1_z	ground_torque2_x	ground_torque2_y	ground_torque2_z	
16.31493700000000	47.90799100000000	750.97817099999997	45.12360800000000	0.24728600000000	0.00000000000000	0.09533400000000	0.00000000000000	0.00000000000000	0.00000000000000	0.00000000000000	0.00000000000000	0.00000000000000	0.00000000000000	14.21871600000000	0.00000000000000	0.00000000000000	0.00000000000000	0.00000000000000	
16.31661200000000	47.14036600000000	750.42237399999999	45.13177500000000	0.24610000000000	0.00000000000000	0.09537100000000	0.00000000000000	0.00000000000000	0.00000000000000	0.00000000000000	0.00000000000000	0.00000000000000	0.00000000000000	14.24635900000000	0.00000000000000	0.00000000000000	0.00000000000000	0.00000000000000	
16.31827300000000	46.37543000000000	749.74841600000002	45.13322800000000	0.24490300000000	0.00000000000000	0.09540900000000	0.00000000000000	0.00000000000000	0.00000000000000	0.00000000000000	0.00000000000000	0.00000000000000	0.00000000000000	14.26964600000000	0.00000000000000	0.00000000000000	0.00000000000000	0.00000000000000	
16.31994300000000	45.61336400000000	748.96026600000005	45.12771400000000	0.24369500000000	0.00000000000000	0.09544700000000	0.00000000000000	0.00000000000000	0.00000000000000	0.00000000000000	0.00000000000000	0.00000000000000	0.00000000000000	14.28845800000000	0.00000000000000	0.00000000000000	0.00000000000000	0.00000000000000	
16.32160600000000	44.85432600000000	748.06206299999997	45.11497500000000	0.24247600000000	0.00000000000000	0.09548600000000	0.00000000000000	0.00000000000000	0.00000000000000	0.00000000000000	0.00000000000000	0.00000000000000	0.00000000000000	14.30268600000000	0.00000000000000	0.00000000000000	0.00000000000000	0.00000000000000	
16.32327000000000	44.09846200000000	747.05810399999996	45.09475000000000	0.24124600000000	0.00000000000000	0.09552500000000	0.00000000000000	0.00000000000000	0.00000000000000	0.00000000000000	0.00000000000000	0.00000000000000	0.00000000000000	14.31222700000000	0.00000000000000	0.00000000000000	0.00000000000000	0.00000000000000	
16.32494300000000	43.34590200000000	745.95283700000005	45.06678100000000	0.24000300000000	0.00000000000000	0.09556400000000	0.00000000000000	0.00000000000000	0.00000000000000	0.00000000000000	0.00000000000000	0.00000000000000	0.00000000000000	14.31698900000000	0.00000000000000	0.00000000000000	0.00000000000000	0.00000000000000	
16.32660300000000	42.59676900000000	744.75085000000001	45.03081300000000	0.23874700000000	0.00000000000000	0.09560400000000	0.00000000000000	0.00000000000000	0.00000000000000	0.00000000000000	0.00000000000000	0.00000000000000	0.00000000000000	14.31689000000000	0.00000000000000	0.00000000000000	0.00000000000000	0.00000000000000	
16.32827000000000	41.85117500000000	743.45685600000002	44.98660000000000	0.23747900000000	0.00000000000000	0.09564400000000	0.00000000000000	0.00000000000000	0.00000000000000	0.00000000000000	0.00000000000000	0.00000000000000	0.00000000000000	14.31186000000000	0.00000000000000	0.00000000000000	0.00000000000000	0.00000000000000	
16.32993900000000	41.10922800000000	742.07568400000002	44.93390700000000	0.23619800000000	0.00000000000000	0.09568300000000	0.00000000000000	0.00000000000000	0.00000000000000	0.00000000000000	0.00000000000000	0.00000000000000	0.00000000000000	14.30184100000000	0.00000000000000	0.00000000000000	0.00000000000000	0.00000000000000	
16.33160500000000	40.37103400000000	740.61226499999998	44.87251300000000	0.23490400000000	0.00000000000000	0.09572300000000	0.00000000000000	0.00000000000000	0.00000000000000	0.00000000000000	0.00000000000000	0.00000000000000	0.00000000000000	14.28679100000000	0.00000000000000	0.00000000000000	0.00000000000000	0.00000000000000	
16.33327100000000	39.63669500000000	739.07162200000005	44.80221300000000	0.23359700000000	0.00000000000000	0.09576200000000	0.00000000000000	0.00000000000000	0.00000000000000	0.00000000000000	0.00000000000000	0.00000000000000	0.00000000000000	14.26668200000000	0.00000000000000	0.00000000000000	0.00000000000000	0.00000000000000	
16.33493700000000	38.90631700000000	737.45885199999998	44.72282400000000	0.23227700000000	0.00000000000000	0.09580200000000	0.00000000000000	0.00000000000000	0.00000000000000	0.00000000000000	0.00000000000000	0.00000000000000	0.00000000000000	14.24150200000000	0.00000000000000	0.00000000000000	0.00000000000000	0.00000000000000	
16.33660700000000	38.18000500000000	735.77911700000004	44.63418500000000	0.23094500000000	0.00000000000000	0.09584000000000	0.00000000000000	0.00000000000000	0.00000000000000	0.00000000000000	0.00000000000000	0.00000000000000	0.00000000000000	14.21125500000000	0.00000000000000	0.00000000000000	0.00000000000000	0.00000000000000	
16.33827900000000	37.45787000000000	734.03762800000004	44.53615800000000	0.22960100000000	0.00000000000000	0.09587900000000	0.00000000000000	0.00000000000000	0.00000000000000	0.00000000000000	0.00000000000000	0.00000000000000	0.00000000000000	14.17596400000000	0.00000000000000	0.00000000000000	0.00000000000000	0.00000000000000	
16.33994500000000	36.74002600000000	732.23963300000003	44.42863500000000	0.22824600000000	0.00000000000000	0.09591600000000	0.00000000000000	0.00000000000000	0.00000000000000	0.00000000000000	0.00000000000000	0.00000000000000	0.00000000000000	14.13566800000000	0.00000000000000	0.00000000000000	0.00000000000000	0.00000000000000	
16.34160400000000	36.02659300000000	730.39039900000000	44.31153600000000	0.22688000000000	0.00000000000000	0.09595300000000	0.00000000000000	0.00000000000000	0.00000000000000	0.00000000000000	0.00000000000000	0.00000000000000	0.00000000000000	14.09042500000000	0.00000000000000	0.00000000000000	0.00000000000000	0.00000000000000	
16.34327700000000	35.31769900000000	728.49520399999994	44.18481200000000	0.22550400000000	0.00000000000000	0.09598900000000	0.00000000000000	0.00000000000000	0.00000000000000	0.00000000000000	0.00000000000000	0.00000000000000	0.00000000000000	14.04030800000000	0.00000000000000	0.00000000000000	0.00000000000000	0.00000000000000	
16.34494200000000	34.61347600000000	726.55931899999996	44.04844800000000	0.22411900000000	0.00000000000000	0.09602400000000	0.00000000000000	0.00000000000000	0.00000000000000	0.00000000000000	0.00000000000000	0.00000000000000	0.00000000000000	13.98541200000000	0.00000000000000	0.00000000000000	0.00000000000000	0.00000000000000	
16.34660400000000	33.91406400000000	724.58799599999998	43.90246200000000	0.22272500000000	0.00000000000000	0.09605800000000	0.00000000000000	0.00000000000000	0.00000000000000	0.00000000000000	0.00000000000000	0.00000000000000	0.00000000000000	13.92584800000000	0.00000000000000	0.00000000000000	0.00000000000000	0.00000000000000	
16.34827300000000	33.21961100000000	722.58645400000000	43.74690900000000	0.22132400000000	0.00000000000000	0.09609100000000	0.00000000000000	0.00000000000000	0.00000000000000	0.00000000000000	0.00000000000000	0.00000000000000	0.00000000000000	13.86174500000000	0.00000000000000	0.00000000000000	0.00000000000000	0.00000000000000	
16.34993900000000	32.53027000000000	720.55986399999995	43.58187900000000	0.21991700000000	0.00000000000000	0.09612300000000	0.00000000000000	0.00000000000000	0.00000000000000	0.00000000000000	0.00000000000000	0.00000000000000	0.00000000000000	13.79324800000000	0.00000000000000	0.00000000000000	0.00000000000000	0.00000000000000	
16.35160800000000	31.84620400000000	718.51334099999997	43.40749800000000	0.21850500000000	0.00000000000000	0.09615300000000	0.00000000000000	0.00000000000000	0.00000000000000	0.00000000000000	0.00000000000000	0.00000000000000	0.00000000000000	13.72052000000000	0.00000000000000	0.00000000000000	0.00000000000000	0.00000000000000	
16.35327200000000	31.16757700000000	716.45192599999996	43.22393200000000	0.21708900000000	0.00000000000000	0.09618200000000	0.00000000000000	0.00000000000000	0.00000000000000	0.00000000000000	0.00000000000000	0.00000000000000	0.00000000000000	13.64374000000000	0.00000000000000	0.00000000000000	0.00000000000000	0.00000000000000	
16.35494000000000	30.49456300000000	714.38057600000002	43.03138300000000	0.21567100000000	0.00000000000000	0.09620900000000	0.00000000000000	0.00000000000000	0.00000000000000	0.00000000000000	0.00000000000000	0.00000000000000	0.00000000000000	13.56310100000000	0.00000000000000	0.00000000000000	0.00000000000000	0.00000000000000	
16.35660600000000	29.82733800000000	712.30415100000005	42.83008900000000	0.21425200000000	0.00000000000000	0.09623400000000	0.00000000000000	0.00000000000000	0.00000000000000	0.00000000000000	0.00000000000000	0.00000000000000	0.00000000000000	13.47881200000000	0.00000000000000	0.00000000000000	0.00000000000000	0.00000000000000	
16.35827800000000	29.16608300000000	710.22740699999997	42.62032600000000	0.21283200000000	0.00000000000000	0.09625800000000	0.00000000000000	0.00000000000000	0.00000000000000	0.00000000000000	0.00000000000000	0.00000000000000	0.00000000000000	13.39109400000000	0.00000000000000	0.00000000000000	0.00000000000000	0.00000000000000	
16.35994400000000	28.51097800000000	708.15497900000003	42.40240600000000	0.21141500000000	0.00000000000000	0.09628000000000	0.00000000000000	0.00000000000000	0.00000000000000	0.00000000000000	0.00000000000000	0.00000000000000	0.00000000000000	13.30018100000000	0.00000000000000	0.00000000000000	0.00000000000000	0.00000000000000	
16.36161100000000	27.86220800000000	706.09137499999997	42.17667600000000	0.21000100000000	0.00000000000000	0.09630000000000	0.00000000000000	0.00000000000000	0.00000000000000	0.00000000000000	0.00000000000000	0.00000000000000	0.00000000000000	13.20631600000000	0.00000000000000	0.00000000000000	0.00000000000000	0.00000000000000	
16.36327700000000	27.21995600000000	704.04096500000003	41.94351500000000	0.20859100000000	0.00000000000000	0.09631800000000	0.00000000000000	0.00000000000000	0.00000000000000	0.00000000000000	0.00000000000000	0.00000000000000	0.00000000000000	13.10975600000000	0.00000000000000	0.00000000000000	0.00000000000000	0.00000000000000	
16.36494500000000	26.58440300000000	702.00797299999999	41.70333700000000	0.20718800000000	0.00000000000000	0.09633400000000	0.00000000000000	0.00000000000000	0.00000000000000	0.00000000000000	0.00000000000000	0.00000000000000	0.00000000000000	13.01076300000000	0.00000000000000	0.00000000000000	0.00000000000000	0.00000000000000	
16.36661100000000	25.95572700000000	699.99646499999994	41.45658500000000	0.20579300000000	0.00000000000000	0.09634800000000	0.00000000000000	0.00000000000000	0.00000000000000	0.00000000000000	0.00000000000000	0.00000000000000	0.00000000000000	12.90960800000000	0.00000000000000	0.00000000000000	0.00000000000000	0.00000000000000	
16.36827000000000	25.33410100000000	698.01034900000002	41.20373000000000	0.20440600000000	0.00000000000000	0.09635900000000	0.00000000000000	0.00000000000000	0.00000000000000	0.00000000000000	0.00000000000000	0.00000000000000	0.00000000000000	12.80656600000000	0.00000000000000	0.00000000000000	0.00000000000000	0.00000000000000	
